PathFileType	4	(X/Y/Z)	Kane _Static
DataRate	CameraRate	NumFrames	NumMarkers	Units	OrigDataRate	OrigDataStartFrame	OrigNumFrames
250	250	4	66	mm	250	658	200
Frame#	Time	LASI			RASI			LPSI			RPSI			C7			T10			CLAV			STRN			RTH1			RTH2			RTH3			RTB1			RTB2			RTB3			RCAL			RMT1			RMT2			LTH1			LTH2			LTH3			LTB1			LTB2			LTB3			LCAL			LMT1			LMT2			RLFC			RMFC			LLFC			LMFC			RMMAL			RLMAL			LMMAL			LLMAL			G_LCAL			G_LMT1			G_LMT2			G_RCAL			G_RMT1			G_RMT2			LAJC			LKJC			OPelvis			RAJC			RKJC			Reg_LHJC			Reg_RHJC			SACR			fun_LAJC			fun_LHJC			fun_LKJC			fun_LLAJC			fun_LLKJC			fun_LMAJC			fun_LMKJC			fun_RAJC			fun_RHJC			fun_RKJC			fun_RLAJC			fun_RLKJC			fun_RMAJC			fun_RMKJC			RHJC			LHJC			G_RAJC			G_LAJC		
		X1	Y1	Z1	X2	Y2	Z2	X3	Y3	Z3	X4	Y4	Z4	X5	Y5	Z5	X6	Y6	Z6	X7	Y7	Z7	X8	Y8	Z8	X9	Y9	Z9	X10	Y10	Z10	X11	Y11	Z11	X12	Y12	Z12	X13	Y13	Z13	X14	Y14	Z14	X15	Y15	Z15	X16	Y16	Z16	X17	Y17	Z17	X18	Y18	Z18	X19	Y19	Z19	X20	Y20	Z20	X21	Y21	Z21	X22	Y22	Z22	X23	Y23	Z23	X24	Y24	Z24	X25	Y25	Z25	X26	Y26	Z26	X27	Y27	Z27	X28	Y28	Z28	X29	Y29	Z29	X30	Y30	Z30	X31	Y31	Z31	X32	Y32	Z32	X33	Y33	Z33	X34	Y34	Z34	X35	Y35	Z35	X36	Y36	Z36	X37	Y37	Z37	X38	Y38	Z38	X39	Y39	Z39	X40	Y40	Z40	X41	Y41	Z41	X42	Y42	Z42	X43	Y43	Z43	X44	Y44	Z44	X45	Y45	Z45	X46	Y46	Z46	X47	Y47	Z47	X48	Y48	Z48	X49	Y49	Z49	X50	Y50	Z50	X51	Y51	Z51	X52	Y52	Z52	X53	Y53	Z53	X54	Y54	Z54	X55	Y55	Z55	X56	Y56	Z56	X57	Y57	Z57	X58	Y58	Z58	X59	Y59	Z59	X60	Y60	Z60	X61	Y61	Z61	X62	Y62	Z62	X63	Y63	Z63	X64	Y64	Z64	X65	Y65	Z65	X66	Y66	Z66	
647	2.588	560.014654	1037.464390	-668.990885	558.262265	1036.814051	-463.309994	389.333217	1110.839805	-622.380002	386.718294	1105.968151	-511.374634	396.586414	1543.609360	-567.712462	373.024489	1300.562464	-566.952675	530.100173	1490.178373	-562.642814	595.213961	1318.350819	-562.915974	477.021741	898.779202	-392.486805	570.486991	793.322408	-461.137347	479.568185	695.076872	-389.498126	468.975122	412.261286	-483.611765	413.102425	331.973847	-379.084724	435.465719	221.512698	-462.853012	312.353707	 57.217481	-438.338220	553.897577	 59.605694	-431.303739	527.906809	 56.125426	-352.487285	443.808723	861.688638	-750.164903	546.561312	749.194491	-714.434234	426.625903	663.414973	-740.397582	463.032290	415.256441	-670.887787	389.492939	337.279878	-765.372595	424.614122	221.042032	-682.861057	301.982984	 59.943546	-703.061596	547.903044	 54.543536	-701.375822	515.785509	 52.616991	-794.763947	470.010146	502.488201	-414.355532	482.241013	488.513455	-516.924561	442.095361	510.329091	-729.820190	457.342366	508.277844	-628.095589	414.564445	106.998193	-472.446536	393.634220	108.709612	-385.639568	424.295268	117.991642	-676.552321	377.818191	108.968442	-758.613084	301.982984	  0.000000	-703.061596	547.903044	  0.000000	-701.375822	515.785509	  0.000000	-794.763947	312.353707	  0.000000	-438.338220	553.897577	  0.000000	-431.303739	527.906809	  0.000000	-352.487285	401.056730	113.480042	-717.582703	449.718864	509.303468	-678.957890	559.138461	1037.139217	-566.150442	404.099335	107.853901	-429.043050	476.125579	495.500828	-465.640046	488.701783	995.637361	-636.691051	487.862305	995.048379	-496.812353	388.025752	1108.403976	-566.877319	385.064222	118.614841	-709.089605	477.909782	951.601049	-665.992941	449.718864	509.303467	-678.957894	372.878730	114.732075	-756.449190	442.095361	510.329091	-729.820190	397.249716	122.497606	-661.730009	457.342366	508.277844	-628.095589	397.538163	104.585742	-430.560568	477.508776	948.600388	-477.825110	476.125579	495.500828	-465.640045	386.323775	101.515842	-387.260310	470.010146	502.488201	-414.355532	408.752552	107.655643	-473.860832	482.241013	488.513455	-516.924561	477.508776	948.600388	-477.825110	477.909782	951.601049	-665.992941	404.099335	  0.000000	-429.043050	401.056730	  0.000000	-717.582703	
648	2.592	560.006743	1037.461434	-669.006738	558.269131	1036.805769	-463.334869	389.330675	1110.837111	-622.390399	386.727075	1105.965550	-511.383648	396.603749	1543.609949	-567.706659	373.017780	1300.564447	-566.964439	530.091198	1490.161330	-562.655920	595.211725	1318.331501	-562.923127	477.034644	898.773975	-392.502197	570.494191	793.317534	-461.168147	479.584655	695.071547	-389.514072	468.987050	412.253331	-483.617611	413.114532	331.966922	-379.082341	435.468749	221.506641	-462.856310	312.354591	 57.214945	-438.338156	553.897403	 59.605638	-431.303735	527.906295	 56.126237	-352.488041	443.799899	861.688132	-750.177288	546.557415	749.196200	-714.451951	426.622146	663.413301	-740.407872	463.033967	415.256898	-670.894913	389.492759	337.277941	-765.375882	424.613880	221.041351	-682.862447	301.982733	 59.942416	-703.060858	547.901150	 54.542634	-701.374929	515.784117	 52.616691	-794.763687	470.026848	502.482457	-414.370917	482.243205	488.507992	-516.941728	442.095879	510.328265	-729.830572	457.348886	508.277907	-628.106852	414.564035	106.996606	-472.447689	393.630262	108.707313	-385.633189	424.292623	117.991068	-676.551659	377.818542	108.967159	-758.613462	301.982733	  0.000000	-703.060858	547.901150	  0.000000	-701.374929	515.784117	  0.000000	-794.763687	312.354591	  0.000000	-438.338156	553.897403	  0.000000	-431.303735	527.906295	  0.000000	-352.488041	401.055582	113.479113	-717.582561	449.722383	509.303086	-678.968712	559.137939	1037.133597	-566.170805	404.097151	107.851958	-429.040437	476.135027	495.495224	-465.656323	488.697204	995.634375	-636.708387	487.865298	995.042741	-496.829652	388.028871	1108.401329	-566.887025	385.062374	118.614163	-709.089837	477.900978	951.599550	-666.010893	449.722383	509.303084	-678.968716	372.876315	114.730306	-756.448192	442.095879	510.328265	-729.830572	397.248434	122.498019	-661.731472	457.348886	508.277907	-628.106852	397.535819	104.580910	-430.558099	477.513254	948.594004	-477.843105	476.135027	495.495223	-465.656321	386.323065	101.511438	-387.253322	470.026848	502.482457	-414.370917	408.748574	107.650382	-473.862880	482.243205	488.507992	-516.941728	477.513254	948.594004	-477.843105	477.900978	951.599550	-666.010893	404.097151	  0.000000	-429.040437	401.055582	  0.000000	-717.582561	
649	2.596	559.999060	1037.458802	-669.022223	558.275104	1036.798070	-463.358819	389.327408	1110.833855	-622.400834	386.734598	1105.962738	-511.392562	396.620742	1543.610367	-567.701337	373.010366	1300.566255	-566.976576	530.081608	1490.143696	-562.670104	595.208886	1318.312028	-562.930639	477.046982	898.768827	-392.517339	570.501454	793.313011	-461.197954	479.601121	695.066329	-389.529830	468.999413	412.245273	-483.623345	413.126769	331.959858	-379.079962	435.471987	221.500493	-462.859505	312.355534	 57.212259	-438.337994	553.897226	 59.605592	-431.303726	527.905774	 56.127038	-352.488747	443.791873	861.687592	-750.189439	546.554213	749.197957	-714.469085	426.619181	663.411600	-740.418092	463.036224	415.257210	-670.901942	389.493125	337.276037	-765.379325	424.613902	221.040563	-682.863800	301.982481	 59.941247	-703.060062	547.899111	 54.541666	-701.373882	515.782826	 52.616368	-794.763461	470.044221	502.476780	-414.386216	482.246835	488.502671	-516.958727	442.097175	510.327427	-729.840899	457.355786	508.277910	-628.118001	414.563586	106.994966	-472.448830	393.626406	108.705063	-385.627150	424.290221	117.990358	-676.551075	377.818948	108.965832	-758.613591	301.982481	  0.000000	-703.060062	547.899111	  0.000000	-701.373882	515.782826	  0.000000	-794.763461	312.355534	  0.000000	-438.337994	553.897226	  0.000000	-431.303726	527.905774	  0.000000	-352.488747	401.054584	113.478095	-717.582333	449.726480	509.302668	-678.979450	559.137083	1037.128431	-566.190522	404.094998	107.850014	-429.037988	476.145528	495.489726	-465.672472	488.692673	995.631456	-636.725296	487.867869	995.037230	-496.846525	388.030999	1108.398295	-566.896699	385.060694	118.613498	-709.089930	477.892660	951.598006	-666.028413	449.726480	509.302667	-678.979454	372.874157	114.728571	-756.447043	442.097175	510.327427	-729.840899	397.247233	122.498424	-661.732806	457.355786	508.277910	-628.118001	397.533558	104.576022	-430.555771	477.517417	948.587734	-477.860668	476.145528	495.489725	-465.672471	386.322389	101.507016	-387.246675	470.044221	502.476780	-414.386216	408.744728	107.645029	-473.864872	482.246835	488.502671	-516.958727	477.517417	948.587734	-477.860668	477.892660	951.598006	-666.028413	404.094998	  0.000000	-429.037988	401.054584	  0.000000	-717.582333	
650	2.6	559.991633	1037.456476	-669.037311	558.280150	1036.790935	-463.381798	389.323454	1110.830057	-622.411316	386.740862	1105.959723	-511.401400	396.637400	1543.610625	-567.696546	373.002270	1300.567891	-566.989078	530.071632	1490.125518	-562.685285	595.205460	1318.292404	-562.938516	477.058671	898.763745	-392.532219	570.508761	793.308849	-461.226655	479.617531	695.061215	-389.545387	469.012237	412.237107	-483.628975	413.139133	331.952667	-379.077638	435.475449	221.494254	-462.862597	312.356538	 57.209418	-438.337725	553.897045	 59.605558	-431.303714	527.905247	 56.127826	-352.489394	443.784671	861.687006	-750.201355	546.551707	749.199748	-714.485591	426.617014	663.409867	-740.428246	463.039040	415.257372	-670.908858	389.494044	337.274168	-765.382932	424.614181	221.039672	-682.865112	301.982230	 59.940044	-703.059214	547.896945	 54.540641	-701.372691	515.781635	 52.616026	-794.763256	470.062263	502.471164	-414.401422	482.251999	488.497489	-516.975540	442.099240	510.326569	-729.851164	457.363013	508.277847	-628.129022	414.563102	106.993271	-472.449965	393.622673	108.702874	-385.621489	424.288074	117.989522	-676.550570	377.819403	108.964463	-758.613465	301.982230	  0.000000	-703.059214	547.896945	  0.000000	-701.372691	515.781635	  0.000000	-794.763256	312.356538	  0.000000	-438.337725	553.897045	  0.000000	-431.303714	527.905247	  0.000000	-352.489394	401.053738	113.476993	-717.582017	449.731126	509.302208	-678.990093	559.135893	1037.123701	-566.209555	404.092890	107.848072	-429.035725	476.157131	495.484327	-465.688481	488.688203	995.628599	-636.741762	487.869985	995.031842	-496.862959	388.032154	1108.394888	-566.906359	385.059191	118.612847	-709.089878	477.884846	951.596411	-666.045487	449.731127	509.302206	-678.990097	372.872273	114.726870	-756.445751	442.099240	510.326569	-729.851164	397.246111	122.498823	-661.733995	457.363013	508.277847	-628.129022	397.531386	104.571086	-430.553608	477.521215	948.581577	-477.877785	476.157131	495.484326	-465.688480	386.321739	101.502588	-387.240413	470.062263	502.471164	-414.401422	408.741034	107.639585	-473.866808	482.251999	488.497489	-516.975540	477.521215	948.581577	-477.877785	477.884846	951.596411	-666.045487	404.092890	  0.000000	-429.035725	401.053738	  0.000000	-717.582017	
